# xmcd
#
# Track frame offsets: 
#        150
#        19699
#        43551
#        66105
#        81216
#        96370
#        116181
#        138411
#        161764
#        179541
#        201448
#        221959
#        238074
#        246057
#        256649
#        274724
#        292910
#        321451
#
# Disc length: 4637 seconds
#
# Revision: 4
# Processed by: cddbd v1.5.2PL0 Copyright (c) Steve Scherf et al.
# Submitted via: ExactAudioCopyFreeDBPlugin 1.0
#
DISCID=13121b12
DTITLE=Various Artist - True Colors: The Best of Sonic the Hedgehog P
DTITLE=art 2
DYEAR=2009
DGENRE=Rock
TTITLE0=Kenichi Tokoi - Un-Gravitify
TTITLE1=Lee Brotherton - Dreams Of An Absolution
TTITLE2=Everett Bradley - Throw It All Away
TTITLE3=Paul Shortino - E.G.G.M.A.N.
TTITLE4=Julien-K - Waking Up
TTITLE5=Julien-K - This Machine
TTITLE6=Tabitha Fair - Fly In The Freedom
TTITLE7=Nikki Gregoroff - My Sweet Passion
TTITLE8=Kaz Silver - Believe In Myself (SA2 Version)
TTITLE9=Taka Umeno - Unknown From M.E. (SA2 Version)
TTITLE10=Fumie Kumatani - Theme Of E-102粒
TTITLE11=Keiko Utoku - Cosmic Eternity - Believe In Yourself
TTITLE12=Riu Konaka - Look-A-Like (Short Edited Ver.)
TTITLE13=Naofumi Hataya - Sonic3 MegaD Mix
TTITLE14=Ted Poley - Lazy Days -Livin' In Paradise- (Original Demo - M
TTITLE14=ixed With Ted Poley)
TTITLE15=Mike Szuter - All Hail Shadow (Hybrid Mix Feat. Mike Szuter)
TTITLE16=Tomoya Ohtani - Dreams Of An Absolution (Starry Night Remix)
TTITLE17=K-Klub - Open Your Heart (K-Klub Remix)
EXTD=YEAR: 2009
EXTT0=
EXTT1=
EXTT2=
EXTT3=
EXTT4=
EXTT5=
EXTT6=
EXTT7=
EXTT8=
EXTT9=
EXTT10=
EXTT11=
EXTT12=
EXTT13=
EXTT14=
EXTT15=
EXTT16=
EXTT17=
PLAYORDER=
